<svg width="49" height="49" viewBox="0 0 49 49" fill="none" xmlns="http://www.w3.org/2000/svg">
<path d="M6.08377 12.0579C9.27534 12.0579 11.8626 9.47059 11.8626 6.27902C11.8626 3.08746 9.27534 0.500183 6.08377 0.500183C2.89221 0.500183 0.304932 3.08746 0.304932 6.27902C0.304932 9.47059 2.89221 12.0579 6.08377 12.0579Z" fill="white"/>
<path d="M17.3189 16.4367V48.4976H27.2734V32.6428C27.2734 28.4592 28.0604 24.4077 33.2477 24.4077C38.3636 24.4077 38.427 29.1908 38.427 32.9069V48.5003H48.3868V30.9181C48.3868 22.2815 46.5274 15.6443 36.4329 15.6443C31.5864 15.6443 28.3378 18.304 27.0093 20.821H26.8746V16.4367H17.3189ZM1.09692 16.4367H11.0673V48.4976H1.09692V16.4367Z" fill="white"/>
</svg>
