<svg width="50" height="41" viewBox="0 0 50 41" fill="none" xmlns="http://www.w3.org/2000/svg">
<path d="M44.2675 10.4689C44.2999 10.9074 44.2999 11.3434 44.2999 11.7795C44.2999 25.1237 34.1876 40.5002 15.7069 40.5002C10.0133 40.5002 4.72383 38.8438 0.272705 35.9669C1.08109 36.0596 1.85954 36.0922 2.70037 36.0922C7.22383 36.1032 11.6192 34.584 15.178 31.7795C13.0807 31.7413 11.0477 31.0464 9.36268 29.7916C7.67769 28.5368 6.4249 26.7848 5.77923 24.7803C6.40049 24.8731 7.02425 24.9357 7.67794 24.9357C8.57865 24.9357 9.48434 24.8104 10.3252 24.5924C8.0491 24.1308 6.00247 22.8917 4.53326 21.0858C3.06405 19.2798 2.26297 17.0185 2.26623 14.6864V14.5611C3.60606 15.3104 5.16046 15.779 6.80718 15.8416C5.42765 14.9209 4.29648 13.6715 3.51459 12.205C2.7327 10.7384 2.3244 9.10025 2.32611 7.43666C2.32611 5.56221 2.82262 3.84312 3.69339 2.34456C6.2187 5.46452 9.36833 8.01694 12.9383 9.8365C16.5083 11.6561 20.4189 12.7022 24.4171 12.9072C24.2624 12.1554 24.1676 11.376 24.1676 10.5942C24.1669 9.26841 24.4264 7.95554 24.9312 6.73058C25.4361 5.50563 26.1763 4.39261 27.1097 3.45517C28.043 2.51773 29.1512 1.77424 30.3708 1.2672C31.5904 0.760165 32.8976 0.499526 34.2175 0.500184C37.1118 0.500184 39.7241 1.71808 41.5604 3.68775C43.8103 3.25076 45.968 2.42581 47.9377 1.24946C47.1877 3.58204 45.6167 5.55996 43.519 6.81268C45.5145 6.58408 47.4647 6.05701 49.305 5.24896C47.9305 7.26149 46.2274 9.02629 44.2675 10.4689Z" fill="white"/>
</svg>
