<svg width="42" height="36" viewBox="0 0 42 36" fill="none" xmlns="http://www.w3.org/2000/svg">
<path fill-rule="evenodd" clip-rule="evenodd" d="M4.23257 5.72151L21 17.4587L37.7674 5.72151C37.4568 5.17391 36.8676 4.80002 36.2 4.80002H5.8C5.13237 4.80002 4.54317 5.17391 4.23257 5.72151ZM38 10.4413L22.1469 21.5385C21.4583 22.0205 20.5417 22.0205 19.8531 21.5385L4 10.4413V29.4C4 30.3854 4.81457 31.2 5.8 31.2H36.2C37.1854 31.2 38 30.3854 38 29.4V10.4413ZM0 6.60002C0 3.40545 2.60543 0.800018 5.8 0.800018H36.2C39.3946 0.800018 42 3.40545 42 6.60002V29.4C42 32.5946 39.3946 35.2 36.2 35.2H5.8C2.60543 35.2 0 32.5946 0 29.4V6.60002Z" fill="white"/>
</svg>
