<svg width="30" height="24" viewBox="0 0 30 24" fill="none" xmlns="http://www.w3.org/2000/svg">
<path d="M29.5385 6.22708V19.3846C29.5385 20.6087 29.0522 21.7826 28.1866 22.6482C27.3211 23.5137 26.1472 24 24.9231 24H4.61538C3.39131 24 2.21737 23.5137 1.35181 22.6482C0.486262 21.7826 0 20.6087 0 19.3846V6.22708L14.3003 14.6418C14.4424 14.7256 14.6043 14.7698 14.7692 14.7698C14.9342 14.7698 15.0961 14.7256 15.2382 14.6418L29.5385 6.22708ZM24.9231 5.71434e-08C26.0587 -0.000178553 27.1546 0.418351 28.001 1.17552C28.8474 1.93269 29.3849 2.97534 29.5108 4.104L14.7692 12.7754L0.0276925 4.104C0.153523 2.97534 0.69106 1.93269 1.53747 1.17552C2.38388 0.418351 3.47973 -0.000178553 4.61538 5.71434e-08H24.9231Z" fill="white"/>
</svg>
